<svg width="16" height="20" viewBox="0 0 16 20" fill="none" xmlns="http://www.w3.org/2000/svg">
<g id="icons/utility/checkin">
<path id="Mask" d="M7.30919 18.7838L7.63458 18.4042L7.62366 18.3949L7.61221 18.3861L7.30919 18.7838ZM8.25593 18.7838L8.55601 19.1839L8.56484 19.177L8.25593 18.7838ZM7.76363 0.257812C3.50944 0.257812 0.0683594 3.70232 0.0683594 7.99095H1.06836C1.06836 4.25118 4.06515 1.25781 7.76363 1.25781V0.257812ZM0.0683594 7.99095C0.0683594 10.654 1.43443 13.1579 2.94681 15.1134C4.4664 17.0782 6.18581 18.5565 7.00617 19.1816L7.61221 18.3861C6.84203 17.7993 5.19103 16.3806 3.73784 14.5016C2.27744 12.6133 1.06836 10.3267 1.06836 7.99095H0.0683594ZM6.98379 19.1635C7.44751 19.5609 8.08821 19.5346 8.55593 19.1838L7.95593 18.3838C7.81774 18.4875 7.70104 18.4612 7.63458 18.4042L6.98379 19.1635ZM8.56484 19.177C9.38039 18.5362 11.0897 17.0589 12.6 15.0985C14.103 13.1474 15.4589 10.6533 15.4589 7.99095H14.4589C14.4589 10.3274 13.2586 12.6049 11.8078 14.4882C10.3642 16.3621 8.722 17.7818 7.94702 18.3907L8.56484 19.177ZM15.4589 7.99095C15.4589 3.70232 12.0178 0.257812 7.76363 0.257812V1.25781C11.4621 1.25781 14.4589 4.25118 14.4589 7.99095H15.4589ZM7.76363 10.4827C6.3735 10.4827 5.23404 9.34321 5.23404 7.95308H4.23404C4.23404 9.89549 5.82121 11.4827 7.76363 11.4827V10.4827ZM5.23404 7.95308C5.23404 6.56295 6.3735 5.42349 7.76363 5.42349V4.42349C5.82121 4.42349 4.23404 6.01066 4.23404 7.95308H5.23404ZM7.76363 5.42349C9.15376 5.42349 10.2932 6.56295 10.2932 7.95308H11.2932C11.2932 6.01066 9.70604 4.42349 7.76363 4.42349V5.42349ZM10.2932 7.95308C10.2932 9.34321 9.15376 10.4827 7.76363 10.4827V11.4827C9.70604 11.4827 11.2932 9.89549 11.2932 7.95308H10.2932Z" fill="#5191CA"/>
<mask id="mask0_0_353" style="mask-type:luminance" maskUnits="userSpaceOnUse" x="0" y="0" width="16" height="20">
<g id="Mask_2">
<path fill-rule="evenodd" clip-rule="evenodd" d="M7.76363 0.757812C3.78729 0.757812 0.568359 3.97675 0.568359 7.99095C0.568359 12.9898 5.71866 17.572 7.30919 18.7838C7.57428 19.0111 7.95297 19.0111 8.25593 18.7838C9.84647 17.5341 14.9589 12.9898 14.9589 7.99095C14.9589 3.97675 11.74 0.757812 7.76363 0.757812ZM7.76363 10.9827C6.09735 10.9827 4.73404 9.61935 4.73404 7.95308C4.73404 6.28681 6.09735 4.92349 7.76363 4.92349C9.4299 4.92349 10.7932 6.28681 10.7932 7.95308C10.7932 9.61935 9.4299 10.9827 7.76363 10.9827Z" fill="white"/>
<path d="M7.30919 18.7838L7.63458 18.4042L7.62366 18.3949L7.61221 18.3861L7.30919 18.7838ZM8.25593 18.7838L8.55601 19.1839L8.56484 19.177L8.25593 18.7838ZM7.76363 0.257812C3.50944 0.257812 0.0683594 3.70232 0.0683594 7.99095H1.06836C1.06836 4.25118 4.06515 1.25781 7.76363 1.25781V0.257812ZM0.0683594 7.99095C0.0683594 10.654 1.43443 13.1579 2.94681 15.1134C4.4664 17.0782 6.18581 18.5565 7.00617 19.1816L7.61221 18.3861C6.84203 17.7993 5.19103 16.3806 3.73784 14.5016C2.27744 12.6133 1.06836 10.3267 1.06836 7.99095H0.0683594ZM6.98379 19.1635C7.44751 19.5609 8.08821 19.5346 8.55593 19.1838L7.95593 18.3838C7.81774 18.4875 7.70104 18.4612 7.63458 18.4042L6.98379 19.1635ZM8.56484 19.177C9.38039 18.5362 11.0897 17.0589 12.6 15.0985C14.103 13.1474 15.4589 10.6533 15.4589 7.99095H14.4589C14.4589 10.3274 13.2586 12.6049 11.8078 14.4882C10.3642 16.3621 8.722 17.7818 7.94702 18.3907L8.56484 19.177ZM15.4589 7.99095C15.4589 3.70232 12.0178 0.257812 7.76363 0.257812V1.25781C11.4621 1.25781 14.4589 4.25118 14.4589 7.99095H15.4589ZM7.76363 10.4827C6.3735 10.4827 5.23404 9.34321 5.23404 7.95308H4.23404C4.23404 9.89549 5.82121 11.4827 7.76363 11.4827V10.4827ZM5.23404 7.95308C5.23404 6.56295 6.3735 5.42349 7.76363 5.42349V4.42349C5.82121 4.42349 4.23404 6.01066 4.23404 7.95308H5.23404ZM7.76363 5.42349C9.15376 5.42349 10.2932 6.56295 10.2932 7.95308H11.2932C11.2932 6.01066 9.70604 4.42349 7.76363 4.42349V5.42349ZM10.2932 7.95308C10.2932 9.34321 9.15376 10.4827 7.76363 10.4827V11.4827C9.70604 11.4827 11.2932 9.89549 11.2932 7.95308H10.2932Z" fill="white"/>
</g>
</mask>
<g mask="url(#mask0_0_353)">
</g>
</g>
</svg>
