<?xml version="1.0" ?><svg height="182px" version="1.1" viewBox="0 0 182 182" width="182px" xmlns="http://www.w3.org/2000/svg" xmlns:sketch="http://www.bohemiancoding.com/sketch/ns" xmlns:xlink="http://www.w3.org/1999/xlink"><title/><defs/><g fill="none" fill-rule="evenodd" id="Page-1" stroke="none" stroke-width="1"><g id="Czech-republic" transform="translate(0.000000, 1.000000)"><path d="M28.7636174,24.9872556 C11.6541665,41.3705002 1,64.4410424 1,90 C1,115.558958 11.6541665,138.6295 28.7636174,155.012744 L101,90 L28.7636174,24.9872556 Z M28.7636174,24.9872556" fill="#346DA6" id="Oval-1-copy-3"/><path d="M180.994507,90 C180.994507,139.70563 140.70138,180 90.9972841,180 C66.8526967,180 44.9288077,170.491772 28.7655126,155.015321 L101.002529,90 L180.994507,90 Z M1.000061,90 C1.000061,90.3372115 1.00191549,90.6739899 1.00561483,91.0103254 L1.00561483,90 L1.000061,90 Z M1.000061,90" fill="#CA4738" id="Rectangle-40-copy"/><path d="M180.994446,90 C180.994446,40.2943701 140.701319,0 90.9972231,0 C66.8526357,0 44.9287467,9.5082279 28.7654516,24.9846789 L28.7654516,24.9846789 L101.002468,90 L180.994446,90 Z M1,90 C1,89.6627885 1.00185449,89.3260101 1.00555383,88.9896746 L1.00555383,88.9896746 L1.00555383,90 L1,90 Z M1,90" fill="#FFFFFF" id="Rectangle-40"/></g></g></svg>