<?xml version="1.0" ?><svg height="182px" version="1.1" viewBox="0 0 182 182" width="182px" xmlns="http://www.w3.org/2000/svg" xmlns:sketch="http://www.bohemiancoding.com/sketch/ns" xmlns:xlink="http://www.w3.org/1999/xlink"><title/><defs/><g fill="none" fill-rule="evenodd" id="Europe" stroke="none" stroke-width="1"><g id="Germany" transform="translate(-599.000000, 1.000000)"><path d="M774.878829,120 C762.523738,154.955772 729.186567,180 690,180 C650.813433,180 617.476262,154.955772 605.121171,120 L774.878833,120 Z M774.878829,120" fill="#DFAC16" id="Oval-1-copy-4"/><path d="M774.878829,120.000001 C778.195374,110.616633 780,100.519063 780,90 C780,79.480937 778.195374,69.3833673 774.878829,59.9999996 L605.121167,60 C601.804626,69.3833673 600,79.480937 600,90 C600,100.519063 601.804626,110.616633 605.121171,120 L774.878833,120 Z M774.878829,120.000001" fill="#CA4638" id="Oval-1-copy-5"/><path d="M774.878829,59.9999996 C762.523738,25.0442275 729.186567,0 690,0 C650.813433,0 617.476262,25.0442275 605.121171,59.9999996 L774.878833,60 Z M774.878829,59.9999996" fill="#262626" id="Oval-1-copy-5"/></g></g></svg>