<?xml version="1.0" ?><svg height="182px" version="1.1" viewBox="0 0 182 182" width="182px" xmlns="http://www.w3.org/2000/svg" xmlns:sketch="http://www.bohemiancoding.com/sketch/ns" xmlns:xlink="http://www.w3.org/1999/xlink"><title/><defs/><g fill="none" fill-rule="evenodd" id="Page-1" stroke="none" stroke-width="1"><g id="UK" transform="translate(1.000000, 1.000000)"><circle cx="90" cy="90" d="M90,180 C139.70563,180 180,139.70563 180,90 C180,40.2943701 139.70563,0 90,0 C40.2943701,0 0,40.2943701 0,90 C0,139.70563 40.2943701,180 90,180 Z M90,180" fill="#346DA6" id="Oval-1-copy-9" r="90"/><path d="M163.36122,37.8519838 C160.445287,33.7572645 157.195102,29.9170845 153.65048,26.3712595 L153.62874,26.3495198 C150.082915,22.8048984 146.242735,19.5547133 142.148016,16.6387803 L16.6387803,142.148016 C19.5547133,146.242735 22.8048984,150.082915 26.3495199,153.62874 L26.3712596,153.65048 C29.9170845,157.195102 33.7572645,160.445287 37.8519838,163.36122 L163.36122,37.8519838 Z M163.36122,37.8519838" fill="#FFFFFF" id="Oval-1-copy-6"/><path d="M142.148016,163.36122 C146.242736,160.445287 150.082916,157.195101 153.628741,153.65048 L153.650481,153.62874 C157.195102,150.082915 160.445287,146.242735 163.36122,142.148016 L37.8519838,16.6387803 C33.7572645,19.5547133 29.9170845,22.8048984 26.3712595,26.3495199 L26.3495198,26.3712596 C22.8048984,29.9170845 19.5547133,33.7572645 16.6387803,37.8519838 L142.148016,163.36122 Z M142.148016,163.36122" fill="#FFFFFF" id="Oval-1-copy-5"/><path d="M160.2874,33.7836674 C158.197958,31.1746248 155.966261,28.6844378 153.604067,26.3248647 L90.4020203,89.5269119 L97.4730881,96.5979797 L160.2874,33.7836674 Z M160.2874,33.7836674" fill="#CA4638" id="Oval-1-copy-9" transform="translate(90.000000, 90.000000) scale(1, -1) translate(-90.000000, -90.000000) "/><path d="M33.7836674,19.7125996 C31.1746248,21.8020423 28.6844378,24.0337395 26.3248647,26.3959325 L94.5269119,94.5979797 L101.59798,87.5269119 L33.7836674,19.7125996 Z M33.7836674,19.7125996" fill="#CA4638" id="Oval-1-copy-10" transform="translate(90.000000, 90.000000) scale(1, -1) translate(-90.000000, -90.000000) "/><path d="M146.216333,160.2874 C148.825378,158.197956 151.315567,155.966257 153.675141,153.604061 L95.4730881,95.4020203 L88.4020203,102.473088 L146.216333,160.2874 Z M146.216333,160.2874" fill="#CA4638" id="Oval-1-copy-10" transform="translate(90.000000, 90.000000) scale(1, -1) translate(-90.000000, -90.000000) "/><path d="M19.7125996,146.216333 C21.8020425,148.825375 24.0337398,151.315563 26.3959331,153.675136 L83.5979797,96.4730881 L76.5269119,89.4020203 L19.7125994,146.216333 Z M19.7125996,146.216333" fill="#CA4638" id="Oval-1-copy-10" transform="translate(90.000000, 90.000000) scale(1, -1) translate(-90.000000, -90.000000) "/><path d="M178.755624,105 C179.574018,100.121873 180,95.1106832 180,90 C180,84.8893168 179.574018,79.8781271 178.755624,75 L1.24437643,75 C0.425981881,79.8781271 0,84.8893168 0,90 C0,95.1106832 0.425981881,100.121873 1.24437643,105 L178.755624,105 Z M178.755624,105" fill="#FFFFFF" id="Oval-1-copy-6"/><path d="M105,178.755624 C100.121873,179.574018 95.1106832,180 90,180 C84.8893168,180 79.8781271,179.574018 75,178.755624 L75,1.24437644 C79.8781271,0.425981881 84.8893168,0 90,0 C95.1106832,0 100.121873,0.425981876 105,1.24437641 L105,178.755624 Z M105,178.755624" fill="#FFFFFF" id="Oval-1-copy-5"/><path d="M179.450712,100 C179.813667,96.7166615 180,93.380091 180,90 C180,86.619909 179.813667,83.2833385 179.450712,80 L0.549287698,80 C0.186333089,83.2833385 0,86.619909 0,90 C0,93.380091 0.186333089,96.7166615 0.549287698,100 L179.450712,100 Z M179.450712,100" fill="#CA4638" id="Oval-1-copy-7"/><path d="M100,179.450712 C96.7166615,179.813667 93.380091,180 90,180 C86.619909,180 83.2833385,179.813667 80,179.450712 L80,0.549287698 C83.2833385,0.186333089 86.619909,0 90,0 C93.380091,0 96.7166615,0.186333089 100,0.549287698 L100,179.450712 Z M100,179.450712" fill="#CA4638" id="Oval-1-copy-7"/></g></g></svg>